# xmcd
#
# Track frame offsets: 
#        150
#        1296
#        12729
#        22888
#        34037
#        53667
#        66184
#        85278
#        99413
#        120451
#        141735
#        152319
#        163738
#        179661
#
# Disc length: 2786 seconds
#
# Revision: 0
# Processed by: cddbd v1.5.2PL0 Copyright (c) Steve Scherf et al.
# Submitted via: ExactAudioCopy v0.95b4
#
DISCID=b10ae00e
DTITLE=Clint Black - Concord, CA - October 7
DYEAR=1989
DGENRE=Country
TTITLE0=Introduction
TTITLE1=Only Daddy That'll Walk The Line
TTITLE2=Too Many Stones to Overturn
TTITLE3=One More Payment
TTITLE4=Nobody's Home
TTITLE5=Better Man
TTITLE6=The Goodnight Lovin'
TTITLE7=Live and Learn
TTITLE8=Killin' Time
TTITLE9=Ain't Misbehavin'
TTITLE10=Straight From The Factory
TTITLE11=I'll Be Gone
TTITLE12=This Nightlife
TTITLE13=Steamroller Blues
EXTD=
EXTT0=
EXTT1=
EXTT2=
EXTT3=
EXTT4=
EXTT5=
EXTT6=
EXTT7=
EXTT8=
EXTT9=
EXTT10=
EXTT11=
EXTT12=
EXTT13=
PLAYORDER=
